# AST/ASF file generated using VICON BodyLanguage
# -----------------------------------------------
:version 1.10
:name VICON
:units
  mass 1.0
  length 0.45
  angle deg
:documentation
   .ast/.asf automatically generated from VICON data using
   VICON BodyBuilder and BodyLanguage model FoxedUp or BRILLIANT.MOD
:root
   order TX TY TZ RX RY RZ
   axis XYZ
   position 0 0 0  
   orientation 0 0 0 
:bonedata
  begin
     id 1 
     name lhipjoint
     direction 0.61522 -0.761478 0.204097 
     length 2.55743 
     axis 0 0 0  XYZ
  end
  begin
     id 2 
     name lfemur
     direction 0.34202 -0.939693 0  
     length 7.61162  
     axis 0 0 20  XYZ
    dof rx ry rz
    limits (-160.0 20.0)
           (-70.0 70.0)
           (-60.0 70.0)
  end
  begin
     id 3 
     name ltibia
     direction 0.34202 -0.939693 0   
     length 8.12393   
     axis 0 0 20   XYZ
    dof rx
    limits (-10.0 170.0)
  end
  begin
     id 4 
     name lfoot
     direction 0.0841971 -0.23133 0.969225   
     length 2.3572   
     axis -90 7.62852e-016 20   XYZ
    dof rx rz
    limits (-45.0 90.0)
           (-70.0 20.0)
  end
  begin
     id 5 
     name ltoes
     direction 1.53562e-011 -4.22209e-011 1   
     length 1.17993   
     axis -90 7.62852e-016 20   XYZ
    dof rx
    limits (-90.0 20.0)
  end
  begin
     id 6 
     name rhipjoint
     direction -0.625247 -0.75382 0.202044   
     length 2.58341  
     axis 0 0 0  XYZ 
  end
  begin
     id 7 
     name rfemur
     direction -0.34202 -0.939693 0   
     length 7.42147   
     axis 0 0 -20   XYZ
    dof rx ry rz
    limits (-160.0 20.0)
           (-70.0 70.0)
           (-70.0 60.0)
  end
  begin
     id 8 
     name rtibia
     direction -0.34202 -0.939693 0   
     length 8.20893   
     axis 0 0 -20   XYZ
    dof rx
    limits (-10.0 170.0)
 end
 begin
     id 9 
     name rfoot
     direction -0.124331 -0.341598 0.931586   
     length 2.45604  
     axis -90 -7.62852e-016 -20   XYZ
    dof rx rz
    limits (-45.0 90.0)
           (-20.0 70.0)
  end
  begin
     id 10 
     name rtoes
     direction -1.5353e-011 -4.2199e-011 1   
     length 1.21323   
     axis -90 -7.62852e-016 -20   XYZ
    dof rx
    limits (-90.0 20.0)
  end
  begin
     id 11 
     name lowerback
     direction -0.0218484 0.994884 -0.0986303   
     length 2.00523   
     axis 0 0 0   XYZ
    dof rx ry rz
    limits (-20.0 45.0)
           (-30.0 30.0)
           (-30.0 30.0)
  end
  begin
     id 12 
     name upperback
     direction -0.0097305 0.999717 -0.0217111   
     length 2.01352   
     axis 0 0 0   XYZ
    dof rx ry rz
    limits (-20.0 45.0)
           (-30.0 30.0)
           (-30.0 30.0)
  end
  begin
     id 13 
     name thorax
     direction -0.000928262 0.999699 0.0245198   
     length 2.02938   
     axis 0 0 0   XYZ
    dof rx ry rz
    limits (-20.0 45.0)
           (-30.0 30.0)
           (-30.0 30.0)
  end
  begin
     id 14 
     name lowerneck
     direction -0.0307979 0.998024 0.0547665   
     length 1.77263   
     axis 0 0 0   XYZ
    dof rx ry rz
    limits (-20.0 45.0)
           (-30.0 30.0)
           (-30.0 30.0)
  end
  begin
     id 15 
     name upperneck
     direction 0.0531587 0.996611 -0.0627734   
     length 1.77971   
     axis 0 0 0   XYZ
    dof rx ry rz
    limits (-20.0 45.0)
           (-30.0 30.0)
           (-30.0 30.0)
  end
  begin
     id 16
     name head
     direction 0.0213833 0.999404 -0.0271147  
     length 1.78263  
     axis 0 0 0   XYZ
    dof rx ry rz
    limits (-20.0 45.0)
           (-30.0 30.0)
           (-30.0 30.0)
  end
  begin
     id 17 
     name lclavicle
     direction 0.940017 0.332249 -0.0773233  
     length 3.73315  
     axis 0 0 0   XYZ
    dof ry rz
    limits (-20.0 10.0)
           (0.0 20.0)
  end
  begin
     id 18 
     name lhumerus
     direction 1 -4.48944e-011 7.52288e-028   
     length 5.40188   
     axis 180 -30 -90   XYZ
    dof rx ry rz
    limits (-60.0 90.0)
           (-90.0 90.0)
           (-90.0 90.0)
  end
  begin
     id 19
     name lradius
     direction 1 -4.48988e-011 1.48381e-027   
     length 3.68559   
     axis 180 -30 -90   XYZ
    dof rx
    limits (-10.0 170.0)
  end
  begin
     id 20
     name lwrist
     direction 1 -4.48925e-011 2.56952e-028   
     length 1.84279   
     axis -5.12785e-016 90 90   XYZ
    dof ry
    limits (-180.0 0.0)
 end
  begin
     id 21 
     name lhand
     direction 1 -4.49009e-011 5.13905e-028   
     length 0.61753   
     axis -3.27915e-016 90 90   XYZ
    dof rx rz
    limits (-90.0 90.0)
           (-45.0 45.0)
  end
  begin
     id 22 
     name lfingers
     direction 1 -4.49012e-011 1.02781e-027   
     length 0.497868   
     axis -6.5583e-016 90 90   XYZ
    dof rx
    limits (0.0 90.0)
  end
  begin
     id 23
     name lthumb
     direction 0.707107 -6.34987e-011 0.707107   
     length 0.714842   
     axis -90 45 2.85299e-015   XYZ
    dof rx rz
    limits (-45.0 45.0)
           (-45.0 45.0)
  end
  begin
     id 24 
     name rclavicle
     direction -0.9009 0.425937 -0.0834057   
     length 3.27864  
     axis 0 0 0   XYZ 
    dof ry rz
    limits (-10.0 20.0)
           (-20.0 0.0)
  end
  begin
     id 25 
     name rhumerus
     direction -1 -4.48953e-011 -1.03572e-027  
     length 6.1067   
     axis 180 30 90   XYZ
    dof rx ry rz
    limits (-90.0 60.0)
           (-90.0 90.0)
           (-90.0 90.0)
  end
  begin
     id 26 
     name rradius
     direction -1 -4.48975e-011 1.20742e-027   
     length 3.63052   
     axis 180 30 90   XYZ
    dof rx
    limits (-10.0 170.0)
  end
  begin
     id 27 
     name rwrist
     direction -1 -4.49017e-011 2.56952e-028   
     length 1.81526   
     axis -5.12785e-016 -90 -90   XYZ
    dof ry
    limits (-180.0 0.0)
  end
  begin
     id 28
     name rhand
     direction -1 -4.48832e-011 5.13905e-028   
     length 0.583848   
     axis -3.27915e-016 -90 -90   XYZ
    dof rx rz
    limits (-90.0 90.0)
           (-45.0 45.0)
  end
  begin
     id 29
     name rfingers
     direction -1 -4.48729e-011 1.02781e-027   
     length 0.470713   
     axis -6.5583e-016 -90 -90   XYZ
    dof rx
    limits (0.0 90.0)
  end
  begin
     id 30
     name rthumb
     direction -0.707107 -6.34964e-011 0.707107   
     length 0.675852   
     axis -90 -45 -2.85299e-015   XYZ
    dof rx rz
    limits (-45.0 45.0)
           (-45.0 45.0)
  end
:hierarchy
  begin
    root lhipjoint rhipjoint lowerback
    lhipjoint lfemur
    lfemur ltibia
    ltibia lfoot
    lfoot ltoes
    rhipjoint rfemur
    rfemur rtibia
    rtibia rfoot
    rfoot rtoes
    lowerback upperback
    upperback thorax
    thorax lowerneck lclavicle rclavicle
    lowerneck upperneck
    upperneck head
    lclavicle lhumerus
    lhumerus lradius
    lradius lwrist
    lwrist lhand lthumb
    lhand lfingers
    rclavicle rhumerus
    rhumerus rradius
    rradius rwrist
    rwrist rhand rthumb
    rhand rfingers
  end

#!OML:ASF F:\VICON\USERDATA\INSTALL\rory3\rory3.ASF
:FULLY-SPECIFIED
:DEGREES
309
root -0.050791 17.9176 -4.31981 -4.23285 44.6148 -6.20159
lowerback 9.18629 15.2372 5.32283
upperback 0.0877318 20.7442 -3.52743
thorax -1.68142 10.3644 -8.03704
lowerneck -16.3746 -0.819337 -5.40282
upperneck 8.33658 -0.329164 3.41576
head 5.17888 -0.0899853 1.91709
rclavicle 3.49861e-014 -2.54444e-014
rhumerus 32.7935 42.275 -33.7013
rradius 96.2957
rwrist 23.4958
rhand -35.8347 17.7687
rfingers 7.12502
rthumb -8.95032 -12.0215
lclavicle 3.49861e-014 -2.54444e-014
lhumerus -55.1598 14.2461 25.1614
lradius 94.7091
lwrist 4.93198
lhand -26.4407 12.0038
lfingers 7.12502
lthumb 0.120133 41.9836
rfemur 5.29617 0.0783744 22.7227
rtibia 26.3709
rfoot -37.6735 -39.5799
rtoes 4.47726
lfemur -29.9213 -26.445 2.46487
ltibia 31.7929
lfoot -7.01544 -16.0854
ltoes -11.5191
310
root -0.0513767 17.9131 -4.31775 -4.3446 44.4668 -6.2392
lowerback 9.12321 15.4176 5.16518
upperback 0.135011 20.9659 -3.4874
thorax -1.63044 10.4793 -7.9049
lowerneck -16.1979 -0.925784 -5.50402
upperneck 8.13417 -0.48833 3.68223
head 5.09519 -0.151487 2.002
rclavicle -6.82825e-014 3.10104e-014
rhumerus 33.1689 42.5883 -33.8162
rradius 96.2421
rwrist 23.3858
rhand -35.9231 17.5626
rfingers 7.12502
rthumb -9.03556 -12.2239
lclavicle -6.82825e-014 3.10104e-014
lhumerus -56.0233 14.7409 24.9671
lradius 94.558
lwrist 5.32178
lhand -26.5875 12.3393
lfingers 7.12502
lthumb -0.0217078 42.319
rfemur 5.3343 -0.0624573 22.6761
rtibia 26.4759
rfoot -37.4769 -39.3822
rtoes 4.1857
lfemur -29.8427 -26.607 2.50272
ltibia 31.9527
lfoot -7.24164 -15.8521
ltoes -11.5048
311
root -0.051422 17.9093 -4.3168 -4.31176 44.3527 -6.14521
lowerback 9.05855 15.5191 4.99058
upperback 0.152439 21.0802 -3.53798
thorax -1.59984 10.5406 -7.85728
lowerneck -16.1288 -1.01445 -5.6115
upperneck 8.04452 -0.629764 4.04798
head 5.06449 -0.197756 2.12192
rclavicle 5.29761e-014 -1.03368e-014
rhumerus 33.5263 43.0306 -34.0648
rradius 96.3598
rwrist 23.4796
rhand -36.5282 16.3174
rfingers 7.12502
rthumb -9.61942 -13.443
lclavicle 5.29761e-014 -1.03368e-014
lhumerus -56.876 15.1968 24.7229
lradius 94.4649
lwrist 6.10782
lhand -26.8644 12.4984
lfingers 7.12502
lthumb -0.289148 42.4779
rfemur 5.32788 -0.292594 22.4889
rtibia 26.5489
rfoot -37.1849 -39.125
rtoes 3.91767
lfemur -29.8488 -26.7554 2.43326
ltibia 32.1193
lfoot -7.48941 -15.6075
ltoes -11.74
312
root -0.0512184 17.906 -4.31314 -4.34474 44.2303 -6.20007
lowerback 8.92193 15.569 4.91624
upperback 0.148521 21.1344 -3.61314
thorax -1.51978 10.5739 -7.85496
lowerneck -16.1067 -1.05997 -5.55652
upperneck 7.93846 -0.736405 4.34862
head 5.03433 -0.225852 2.19818
rclavicle 5.56597e-014 -7.15625e-015
rhumerus 33.8508 43.4242 -34.4862
rradius 96.4816
rwrist 23.5816
rhand -37.0169 15.9076
rfingers 7.12502
rthumb -10.091 -13.8304
lclavicle 5.56597e-014 -7.15625e-015
lhumerus -57.7228 15.674 24.3622
lradius 94.3618
lwrist 6.79167
lhand -26.9795 12.4376
lfingers 7.12502
lthumb -0.400329 42.417
rfemur 5.29407 -0.502445 22.4412
rtibia 26.5839
rfoot -36.8319 -39.0042
rtoes 3.51897
lfemur -29.8812 -26.8103 2.48013
ltibia 32.2983
lfoot -7.82284 -15.4061
ltoes -12.6679
313
root -0.0508438 17.9022 -4.30598 -4.53227 44.0941 -6.39969
lowerback 8.7732 15.6318 4.92998
upperback 0.174778 21.2151 -3.6488
thorax -1.38186 10.6232 -7.84065
lowerneck -16.0534 -1.15595 -5.53225
upperneck 7.7636 -0.902017 4.6432
head 4.98125 -0.284351 2.27182
rclavicle -9.34288e-015 -1.98785e-014
rhumerus 34.0481 43.7243 -34.913
rradius 96.5726
rwrist 23.4498
rhand -37.1914 16.101
rfingers 7.12502
rthumb -10.2593 -13.6287
lclavicle -9.34288e-015 -1.98785e-014
lhumerus -58.3992 16.1472 24.0791
lradius 94.2394
lwrist 7.45237
lhand -27.013 12.4115
lfingers 7.12502
lthumb -0.432614 42.3908
rfemur 5.33829 -0.585578 22.5546
rtibia 26.591
rfoot -36.6023 -39.0165
rtoes 3.26932
lfemur -29.8247 -26.8149 2.62554
ltibia 32.4626
lfoot -8.07297 -15.3039
ltoes -13.1281
314
root -0.0505242 17.8994 -4.29981 -4.74713 43.9721 -6.54566
lowerback 8.70893 15.6888 4.92606
upperback 0.229824 21.2894 -3.6439
thorax -1.28087 10.6671 -7.80219
lowerneck -16.0106 -1.27469 -5.63088
upperneck 7.67718 -1.07124 4.91762
head 4.95878 -0.350754 2.35915
rclavicle -2.64384e-014 7.95139e-016
rhumerus 34.1351 44.0313 -35.3249
rradius 96.647
rwrist 23.2845
rhand -37.2248 16.1955
rfingers 7.12502
rthumb -10.2915 -13.5327
lclavicle -2.64384e-014 7.95139e-016
lhumerus -58.9977 16.5915 23.9085
lradius 94.1445
lwrist 8.17825
lhand -26.9891 12.4369
lfingers 7.12502
lthumb -0.409558 42.4163
rfemur 5.47838 -0.596067 22.6399
rtibia 26.5591
rfoot -36.4685 -38.9998
rtoes 3.0221
lfemur -29.6919 -26.8806 2.71292
ltibia 32.5958
lfoot -8.15396 -15.2221
ltoes -12.7089
315
root -0.0523697 17.8975 -4.2959 -4.78515 43.9352 -6.42557
lowerback 8.70097 15.7069 4.76283
upperback 0.303747 21.2972 -3.68333
thorax -1.23846 10.6767 -7.75648
lowerneck -15.9146 -1.45526 -5.8701
upperneck 7.58259 -1.30775 5.29256
head 4.93145 -0.44836 2.49508
rclavicle 3.69739e-014 2.06736e-014
rhumerus 34.1993 44.3453 -35.7212
rradius 96.8019
rwrist 23.1457
rhand -37.354 16.218
rfingers 7.12502
rthumb -10.4162 -13.504
lclavicle 3.69739e-014 2.06736e-014
lhumerus -59.4892 16.7669 24.1804
lradius 94.347
lwrist 9.80209
lhand -27.4437 13.5455
lfingers 7.12502
lthumb -0.848669 43.5235
rfemur 5.63857 -0.590901 22.5302
rtibia 26.5104
rfoot -36.4992 -38.8795
rtoes 3.0115
lfemur -29.5646 -26.986 2.57476
ltibia 32.6685
lfoot -8.15639 -15.1543
ltoes -12.1824
316
root -0.0533594 17.898 -4.29121 -4.76173 43.9338 -6.15146
lowerback 8.75072 15.6819 4.55362
upperback 0.379379 21.2452 -3.7851
thorax -1.22593 10.6567 -7.76898
lowerneck -15.7791 -1.67281 -6.13314
upperneck 7.43556 -1.59418 5.71338
head 4.88675 -0.568589 2.64491
rclavicle -1.33981e-013 -7.95139e-015
rhumerus 34.2535 44.7017 -36.1724
rradius 96.9634
rwrist 23.1198
rhand -37.5203 16.1646
rfingers 7.12502
rthumb -10.5766 -13.5493
lclavicle -1.33981e-013 -7.95139e-015
lhumerus -59.8397 17.0892 24.0453
lradius 94.0659
lwrist 10.122
lhand -27.5889 13.8483
lfingers 7.12502
lthumb -0.988903 43.8257
rfemur 5.85195 -0.57642 22.3066
rtibia 26.4892
rfoot -36.6849 -38.7282
rtoes 3.05812
lfemur -29.3407 -27.1317 2.2778
ltibia 32.6632
lfoot -8.19315 -15.0631
ltoes -11.9796
317
root -0.0501048 17.9007 -4.28555 -4.6593 43.9467 -5.84339
lowerback 8.68838 15.6405 4.33676
upperback 0.450982 21.1681 -3.9029
thorax -1.15886 10.6268 -7.75902
lowerneck -15.5997 -1.79157 -6.30133
upperneck 7.2308 -1.7579 6.04799
head 4.8095 -0.632826 2.76282
rclavicle 4.90998e-014 -7.95139e-016
rhumerus 34.25 45.0821 -36.6176
rradius 97.1362
rwrist 23.1735
rhand -37.5235 15.8855
rfingers 7.12502
rthumb -10.5796 -13.8282
lclavicle 4.90998e-014 -7.95139e-016
lhumerus -60.0471 17.2802 24.1128
lradius 94.0217
lwrist 10.6703
lhand -27.4275 14.6394
lfingers 7.12502
lthumb -0.833011 44.6176
rfemur 6.00589 -0.643637 22.0393
rtibia 26.4849
rfoot -36.6439 -38.7216
rtoes 2.92775
lfemur -29.134 -27.2615 1.95875
ltibia 32.614
lfoot -8.29923 -14.9456
ltoes -12.184
318
root -0.0464463 17.9048 -4.27833 -4.35586 43.9323 -5.4666
lowerback 8.41623 15.6177 3.96196
upperback 0.489663 21.0961 -4.00904
thorax -1.07413 10.598 -7.6158
lowerneck -15.5916 -1.80322 -6.2652
upperneck 7.38948 -1.7851 6.01627
head 4.85861 -0.647996 2.74526
rclavicle 1.27222e-013 -3.18055e-014
rhumerus 34.126 45.5073 -36.9604
rradius 97.4232
rwrist 23.1801
rhand -37.4839 15.6714
rfingers 7.12502
rthumb -10.5415 -14.0443
lclavicle 1.27222e-013 -3.18055e-014
lhumerus -60.2298 17.4419 24.2941
lradius 93.9644
lwrist 10.9774
lhand -27.4534 14.557
lfingers 7.12502
lthumb -0.857965 44.5351
rfemur 6.00172 -0.694992 21.7251
rtibia 26.46
rfoot -36.5026 -38.7494
rtoes 2.79913
lfemur -29.0791 -27.3033 1.66335
ltibia 32.5441
lfoot -8.35464 -14.8073
ltoes -12.3469
319
root -0.0442282 17.9046 -4.27135 -4.23526 43.8988 -5.38179
lowerback 8.20621 15.597 3.81125
upperback 0.434366 21.0501 -4.1186
thorax -1.03863 10.5775 -7.6032
lowerneck -15.4614 -1.88328 -6.19836
upperneck 7.4284 -1.92174 6.06855
head 4.85845 -0.71152 2.7392
rclavicle 1.98785e-016 3.65764e-014
rhumerus 33.7856 45.9182 -37.4224
rradius 97.7207
rwrist 23.2142
rhand -37.5554 15.4225
rfingers 7.12502
rthumb -10.6104 -14.2896
lclavicle 1.98785e-016 3.65764e-014
lhumerus -60.1574 17.4299 24.5538
lradius 93.8538
lwrist 10.9689
lhand -27.648 14.5794
lfingers 7.12502
lthumb -1.04596 44.5565
rfemur 5.98883 -0.669649 21.6679
rtibia 26.4011
rfoot -36.5148 -38.7296
rtoes 2.64622
lfemur -29.0804 -27.2318 1.61458
ltibia 32.4933
lfoot -8.35941 -14.787
ltoes -12.3751
